<?xml version="1.0" encoding="UTF-8"?>
<!DOCTYPE svg PUBLIC "-//W3C//DTD SVG 1.1//EN" "http://www.w3.org/Graphics/SVG/1.1/DTD/svg11.dtd">
<!-- Creator: CorelDRAW 2021 (64-Bit) -->
<svg xmlns="http://www.w3.org/2000/svg" xml:space="preserve" width="2.83178in" height="1.53072in" version="1.1" style="shape-rendering:geometricPrecision; text-rendering:geometricPrecision; image-rendering:optimizeQuality; fill-rule:evenodd; clip-rule:evenodd"
viewBox="0 0 2837.74 1533.95"
 xmlns:xlink="http://www.w3.org/1999/xlink"
 xmlns:xodm="http://www.corel.com/coreldraw/odm/2003">
 <defs>
  <style type="text/css">
   <![CDATA[
    .fil2 {fill:#3535DE}
    .fil0 {fill:#373435;fill-rule:nonzero}
    .fil1 {fill:#3535DE;fill-rule:nonzero}
   ]]>
  </style>
 </defs>
 <g id="Layer_x0020_1">
  <metadata id="CorelCorpID_0Corel-Layer"/>
  <path class="fil0" d="M493.81 626.09l-82.39 227.27c-11.88,32.47 -17.96,55.28 -17.96,68.64 0,18.7 7.66,32.68 23.24,42.33 15.58,9.45 50.71,14.59 105.36,15.41l-10.3 20.96 -511.77 0 8.45 -20.96c43.57,-0.41 74.2,-3.7 92.16,-10.07 17.96,-6.16 33.01,-16.44 44.89,-30.62 8.72,-9.25 21.92,-37.81 39.35,-85.69l191.19 -519.06c13.47,-34.94 20.33,-60 20.33,-75 0,-15.21 -8.72,-27.95 -25.61,-38.22 -17.16,-10.47 -48.06,-16.03 -92.95,-16.85l8.71 -20.95 416.96 0c114.61,0 197,11.3 247.17,33.9 77.64,35.35 116.46,88.57 116.46,159.46 0,68.43 -38.82,128.64 -116.19,180.83 -77.64,52.2 -181.95,78.29 -313.19,78.29 -39.34,0 -87.4,-3.29 -143.92,-9.66zm17.17 -47.05c33.01,3.29 60.73,4.93 82.66,4.93 70.24,0 125.69,-25.27 165.83,-76.03 40.41,-50.55 60.47,-103.36 60.47,-158.43 0,-37.4 -12.94,-66.38 -39.08,-87.13 -26.14,-20.75 -62.06,-31.03 -108,-31.03 -9.77,0 -21.92,0.41 -36.18,1.23l-125.7 346.46z"/>
  <path class="fil1" d="M730.49 693.06l764.56 0 -71.73 192.74 -24.39 0c0.95,-10.28 1.44,-19.31 1.44,-27.07 0,-36.64 -14.82,-65.15 -44.7,-85.54 -29.65,-20.22 -80.09,-31.76 -150.86,-34.65l-204.88 541.95c-11.72,30.14 -17.69,52.52 -17.69,66.96 0,13.35 7.41,24.18 21.75,32.13 14.58,7.94 43.99,12.27 88.22,12.99l-6.21 18.41 -470.26 0 8.61 -18.41c48.05,0 82.96,-6.86 104.95,-20.57 22,-13.71 42.08,-44.39 60.25,-92.22l204.89 -541.23c-71.49,1.8 -131.25,13.71 -179.31,36.1 -48.06,22.2 -92.04,59.19 -131.97,111.16l-27.25 0 74.59 -192.74z"/>
  <path class="fil2" d="M926.49 1533.95c588.12,-79.46 996.98,-1125.58 52.58,-1533.95 286.79,45.98 517.66,203.78 658.73,541.21 399.98,0 799.97,0 1199.95,0 -128.86,93.81 -257.72,187.62 -386.58,281.43 -260.81,-32.99 -521.63,-65.98 -782.44,-98.96 -29.39,563.58 -341.68,746.33 -742.23,810.27z"/>
 </g>
</svg>
