<?xml version="1.0" encoding="UTF-8"?>
<!DOCTYPE svg PUBLIC "-//W3C//DTD SVG 1.1//EN" "http://www.w3.org/Graphics/SVG/1.1/DTD/svg11.dtd">
<!-- Creator: CorelDRAW 2021 (64-Bit) -->
<svg xmlns="http://www.w3.org/2000/svg" xml:space="preserve" width="9.5in" height="3.30555in" version="1.1" style="shape-rendering:geometricPrecision; text-rendering:geometricPrecision; image-rendering:optimizeQuality; fill-rule:evenodd; clip-rule:evenodd"
viewBox="0 0 9500 3305.55"
 xmlns:xlink="http://www.w3.org/1999/xlink"
 xmlns:xodm="http://www.corel.com/coreldraw/odm/2003">
 <defs>
  <style type="text/css">
   <![CDATA[
    .fil3 {fill:#3535DE}
    .fil0 {fill:#E6E6E6}
    .fil1 {fill:#373435;fill-rule:nonzero}
    .fil2 {fill:#3535DE;fill-rule:nonzero}
   ]]>
  </style>
 </defs>
 <g id="Layer_x0020_1">
  <metadata id="CorelCorpID_0Corel-Layer"/>
  <g id="_2506488777120">
   <circle class="fil0" cx="-5664.52" cy="339.87" r="647.58"/>
   <g>
    <g>
     <path class="fil1" d="M-6047.98 281.47l-34.15 94.21c-4.93,13.46 -7.44,22.91 -7.44,28.45 0,7.75 3.17,13.54 9.63,17.55 6.46,3.92 21.02,6.05 43.68,6.39l-4.27 8.69 -212.14 0 3.5 -8.69c18.06,-0.17 30.76,-1.54 38.2,-4.18 7.44,-2.56 13.68,-6.81 18.61,-12.69 3.61,-3.83 9.09,-15.67 16.31,-35.52l79.25 -215.17c5.58,-14.48 8.43,-24.87 8.43,-31.09 0,-6.3 -3.61,-11.58 -10.62,-15.84 -7.11,-4.34 -19.92,-6.65 -38.53,-6.98l3.61 -8.69 172.84 0c47.51,0 81.66,4.69 102.46,14.06 32.19,14.65 48.28,36.71 48.28,66.1 0,28.37 -16.09,53.32 -48.17,74.96 -32.18,21.63 -75.42,32.45 -129.82,32.45 -16.31,0 -36.23,-1.36 -59.66,-4zm7.11 -19.5c13.68,1.36 25.18,2.04 34.26,2.04 29.11,0 52.1,-10.48 68.74,-31.52 16.75,-20.96 25.07,-42.85 25.07,-65.67 0,-15.5 -5.36,-27.52 -16.2,-36.12 -10.84,-8.6 -25.72,-12.86 -44.77,-12.86 -4.05,0 -9.09,0.17 -15,0.51l-52.1 143.62z"/>
     <path class="fil2" d="M-5949.87 309.23l316.94 0 -29.73 79.9 -10.11 0c0.4,-4.26 0.59,-8.01 0.59,-11.22 0,-15.19 -6.14,-27.01 -18.53,-35.46 -12.29,-8.38 -33.2,-13.17 -62.54,-14.36l-84.93 224.65c-4.86,12.49 -7.33,21.77 -7.33,27.75 0,5.54 3.07,10.02 9.02,13.32 6.05,3.29 18.24,5.09 36.57,5.39l-2.57 7.63 -194.94 0 3.57 -7.63c19.92,0 34.39,-2.84 43.51,-8.53 9.11,-5.68 17.44,-18.4 24.97,-38.22l84.93 -224.35c-29.63,0.74 -54.41,5.69 -74.33,14.96 -19.92,9.2 -38.16,24.54 -54.71,46.08l-11.3 0 30.92 -79.9z"/>
    </g>
    <path class="fil3" d="M-5868.63 657.8c243.79,-32.94 413.28,-466.59 21.79,-635.87 118.89,19.06 214.59,84.47 273.06,224.35 165.81,0 331.61,0 497.41,0 -53.42,38.89 -106.83,77.77 -160.25,116.66 -108.11,-13.67 -216.23,-27.35 -324.34,-41.02 -12.18,233.62 -141.64,309.38 -307.68,335.88z"/>
   </g>
  </g>
 </g>
</svg>
